# xmcd
#
# Track frame offsets:
#	150
#	8941
#	16611
#	29975
#	40607
#	55746
#	64443
#	74669
#	82685
#	90539
#	101164
#	111488
#	122724
#	131901
#	140863
#	150685
#	161239
#	172342
#	187076
#
# Disc length: 2630 seconds
#
# Revision: 1
# Processed by: cddbd v1.5.1PL0 Copyright (c) Steve Scherf et al.
# Submitted via: EasyCDDAExtractor 7.1.0.1
#
DISCID=1d0a4413
DTITLE=Various Artist - Bluegrass U.S.A.
DYEAR=2002
DGENRE=Bluegrass
TTITLE0=Mac Wiseman - Ida Red
TTITLE1=Lester Flatt and The Nashville Grass - Black Eyed Suzy
TTITLE2=Joe Maphis - Old Black Mountain Saturday Night
TTITLE3=The Osborne Brothers - Hillbilly Fever
TTITLE4=Lester Flatt and The Nashville Grass - We Don't Care What Mama Don't All
TTITLE4=ow
TTITLE5=Jim Silvers - My, My, My
TTITLE6=The Stonemans - Cripple Creek
TTITLE7=Don Reno - Charlotte Breakdown (Instrumental)
TTITLE8=The Stonemans - Under The Double Eagle 9Instrumental)
TTITLE9=Grandpa Jones - Eight More Miles To Louisville
TTITLE10=Don Reno and Arthur Smith - Five Foot Two Eyes Of Blue
TTITLE11=Felice and The Osborne Brothers - Can Hear Kentucky Calling Me
TTITLE12=Grandpa Jones - Are You From Dixie
TTITLE13=Mac Wiseman and The Osborne Brothers - Midnight Flyer
TTITLE14=Lester Flatt and The Nashville Grass - Ballad Of Jed Clampett
TTITLE15=Jim and Jesse - Diesel On My Tail
TTITLE16=Heights Of Grass - Bile 'em Cabbage Down (Instrumental)
TTITLE17=Johnny Gimble and The Texas Swing Pioneers - Just Because
TTITLE18=Jim and Jesse - Sleepy Eyed John
EXTD=
EXTT0=
EXTT1=
EXTT2=
EXTT3=
EXTT4=
EXTT5=
EXTT6=
EXTT7=
EXTT8=
EXTT9=
EXTT10=
EXTT11=
EXTT12=
EXTT13=
EXTT14=
EXTT15=
EXTT16=
EXTT17=
EXTT18=
PLAYORDER=
